# xmcd CD database file
#
# Track frame offsets:
#	150
#	22992
#	41470
#	65422
#	84742
#	109675
#	128690
#	146460
#	166877
#	190027
#	211127
#	228682
#	245705
#	265960
#	283872
#	302871
#	319294
#
# Disc length: 4498 seconds
#
# Revision: 0
# Processed by: cddbd v1.5.1PL0 Copyright (c) Steve Scherf et al.
# Submitted via: CDex 1.51
#
DISCID=f4119011
DTITLE=Kenny G - At Last... The Duets Album
DYEAR=2005
DGENRE=Jazz
TTITLE0=(Everything I Do) I Do It For You
TTITLE1=At Last
TTITLE2=I Believe I Can Fly
TTITLE3=Careless Whisper
TTITLE4=Beautiful
TTITLE5=Pick Up The Pieces
TTITLE6=Baby Come To Me
TTITLE7=Misty
TTITLE8=Don't Know Why
TTITLE9=The Way You Move
TTITLE10=Sorry Seems To Be The Hardest Word
TTITLE11=Alfie
TTITLE12=The Music That Makes Me Dance
TTITLE13=De Mil Colores
TTITLE14=Brazil
TTITLE15=Everlastiong
TTITLE16=Havana
EXTD=YEAR: 2005
EXTT0=
EXTT1=
EXTT2=
EXTT3=
EXTT4=
EXTT5=
EXTT6=
EXTT7=
EXTT8=
EXTT9=
EXTT10=
EXTT11=
EXTT12=
EXTT13=
EXTT14=
EXTT15=
EXTT16=
PLAYORDER=
